<svg xmlns="http://www.w3.org/2000/svg" viewBox="0 0 1920 700"><defs><style>.cls-1{fill:#f0f8ff;}</style></defs><title>Asset 1</title><g id="Layer_2" data-name="Layer 2"><g id="Layer_1-2" data-name="Layer 1"><path class="cls-1" d="M1920,0V700H0c18.73-58.67,76.7-103.15,133-121,104-33,163.17,37.37,328,27,30.57-1.92,57.79-6.18,87-19,46.62-20.45,54.52-43.48,103-76,56.28-37.74,106.85-48.69,122-52a349.49,349.49,0,0,1,76-8c72.62.33,84.19,23.16,137,22,69.66-1.54,122.61-42.88,133-51,44-34.33,38.68-55.81,87-90,14.08-10,46.71-33.05,93-40,44.45-6.67,61.54,7.54,128,0,24-2.72,36.35-4.23,52-11,19.69-8.53,40.82-23.58,73-69,35.5-50.11,32.44-63.77,55-95,33.22-46,76.52-67.14,109-83C1783.22,1.18,1841.17.84,1920,0Z"/></g></g></svg>